<?xml version="1.0" encoding="UTF-8"?>
<!DOCTYPE svg PUBLIC "-//W3C//DTD SVG 1.1//EN" "http://www.w3.org/Graphics/SVG/1.1/DTD/svg11.dtd">
<svg xmlns="http://www.w3.org/2000/svg" version="1.1" width="200px" height="200px" style="shape-rendering:geometricPrecision; text-rendering:geometricPrecision; image-rendering:optimizeQuality; fill-rule:evenodd; clip-rule:evenodd" xmlns:xlink="http://www.w3.org/1999/xlink">
<g><path style="opacity:0.983" fill="#fefefe" d="M 84.5,-0.5 C 94.5,-0.5 104.5,-0.5 114.5,-0.5C 161.165,9.49798 189.498,37.8313 199.5,84.5C 199.5,94.5 199.5,104.5 199.5,114.5C 189.5,161.167 161.167,189.5 114.5,199.5C 104.5,199.5 94.5,199.5 84.5,199.5C 37.8333,189.5 9.5,161.167 -0.5,114.5C -0.5,104.5 -0.5,94.5 -0.5,84.5C 9.49798,37.8354 37.8313,9.50202 84.5,-0.5 Z"/></g>
<g><path style="opacity:1" fill="#020202" d="M 169.5,44.5 C 169.5,44.8333 169.5,45.1667 169.5,45.5C 168.502,73.6618 168.169,101.995 168.5,130.5C 129.5,130.5 90.5,130.5 51.5,130.5C 51.5,101.833 51.5,73.1667 51.5,44.5C 90.8333,44.5 130.167,44.5 169.5,44.5 Z"/></g>
<g><path style="opacity:1" fill="#030302" d="M 38.5,64.5 C 38.5,90.8333 38.5,117.167 38.5,143.5C 72.5,143.5 106.5,143.5 140.5,143.5C 142.167,143.5 143.833,143.5 145.5,143.5C 145.5,147.167 145.5,150.833 145.5,154.5C 105.833,154.5 66.1667,154.5 26.5,154.5C 26.5,122.833 26.5,91.1667 26.5,59.5C 30.5,59.5 34.5,59.5 38.5,59.5C 38.5,61.1667 38.5,62.8333 38.5,64.5 Z"/></g>
<g><path style="opacity:1" fill="#f7f466" d="M 39.5,64.5 C 41.5,64.5 43.5,64.5 45.5,64.5C 45.5,89.1667 45.5,113.833 45.5,138.5C 77.1667,138.5 108.833,138.5 140.5,138.5C 140.5,139.833 140.5,141.167 140.5,142.5C 106.833,142.5 73.1667,142.5 39.5,142.5C 39.5,116.5 39.5,90.5 39.5,64.5 Z"/></g>
<g><path style="opacity:1" fill="#242424" d="M 169.5,44.5 C 130.167,44.5 90.8333,44.5 51.5,44.5C 51.5,73.1667 51.5,101.833 51.5,130.5C 90.5,130.5 129.5,130.5 168.5,130.5C 168.169,101.995 168.502,73.6618 169.5,45.5C 169.5,74.1667 169.5,102.833 169.5,131.5C 129.833,131.5 90.1667,131.5 50.5,131.5C 50.5,102.167 50.5,72.8333 50.5,43.5C 90.3368,43.1681 130.004,43.5014 169.5,44.5 Z"/></g>
<g><path style="opacity:1" fill="#818181" d="M 62.5,56.5 C 94.329,55.5018 126.329,55.1684 158.5,55.5C 158.831,77.0065 158.497,98.3399 157.5,119.5C 157.5,98.5 157.5,77.5 157.5,56.5C 125.833,56.5 94.1667,56.5 62.5,56.5 Z"/></g>
<g><path style="opacity:1" fill="#fcfcfc" d="M 62.5,56.5 C 94.1667,56.5 125.833,56.5 157.5,56.5C 157.5,77.5 157.5,98.5 157.5,119.5C 154.482,119.665 151.482,119.498 148.5,119C 138.457,103.747 128.291,88.5805 118,73.5C 112,82.1667 106,90.8333 100,99.5C 97.5938,97.0167 95.4271,94.35 93.5,91.5C 92.9984,90.479 92.3317,90.3123 91.5,91C 84.2567,100.154 77.2567,109.488 70.5,119C 67.854,119.497 65.1873,119.664 62.5,119.5C 62.5,98.5 62.5,77.5 62.5,56.5 Z"/></g>
<g><path style="opacity:1" fill="#29ebdf" d="M 77.5,64.5 C 86.8631,63.6082 90.3631,67.6082 88,76.5C 82.6082,82.1016 77.6082,81.7683 73,75.5C 71.7758,70.626 73.2758,66.9593 77.5,64.5 Z"/></g>
<g><path style="opacity:1" fill="#faf9b5" d="M 45.5,64.5 C 46.4976,88.6609 46.831,112.994 46.5,137.5C 78.0044,137.168 109.338,137.502 140.5,138.5C 108.833,138.5 77.1667,138.5 45.5,138.5C 45.5,113.833 45.5,89.1667 45.5,64.5 Z"/></g>
<g><path style="opacity:1" fill="#dbd85b" d="M 38.5,64.5 C 38.8333,64.5 39.1667,64.5 39.5,64.5C 39.5,90.5 39.5,116.5 39.5,142.5C 73.1667,142.5 106.833,142.5 140.5,142.5C 140.5,142.833 140.5,143.167 140.5,143.5C 106.5,143.5 72.5,143.5 38.5,143.5C 38.5,117.167 38.5,90.8333 38.5,64.5 Z"/></g>
<g><path style="opacity:1" fill="#333333" d="M 145.5,143.5 C 146.483,147.298 146.817,151.298 146.5,155.5C 106.33,155.832 66.3299,155.499 26.5,154.5C 66.1667,154.5 105.833,154.5 145.5,154.5C 145.5,150.833 145.5,147.167 145.5,143.5 Z"/></g>
</svg>
