<svg xmlns="http://www.w3.org/2000/svg" width="622" height="79" viewBox="0 0 622 79">
    <g fill="none" fill-rule="evenodd">
        <g fill-rule="nonzero">
            <g>
                <path fill="#00D1B8" d="M621.14 62.62L551.85 62.62 551.85 67.25 611.23 67.25 611.23 71.92 621.14 71.92z" transform="translate(-80 -489) translate(80 489)"/>
                <path fill="#EAE522" d="M551.85 67.25L541.94 67.25 541.94 76.53 611.23 76.53 611.23 71.89 551.85 71.89z" transform="translate(-80 -489) translate(80 489)"/>
                <path fill="#1C1C1C" d="M551.85 67.25H611.24V71.89H551.85zM551.93 47.3c-3.346.006-6.054 2.721-6.05 6.067.004 3.345 2.718 6.055 6.063 6.053 3.346-.002 6.057-2.714 6.057-6.06.033-1.619-.596-3.181-1.742-4.325-1.146-1.144-2.71-1.77-4.328-1.735zM574.92 13.47c2.462.024 4.694-1.443 5.647-3.713.953-2.27.439-4.89-1.302-6.632-1.741-1.74-4.362-2.255-6.632-1.302-2.27.953-3.737 3.185-3.713 5.647.043 3.296 2.704 5.957 6 6zM581 49.24V18.78h-17.18v5.55h3.87c2.35 0 3.36.93 3.36 3.37v21.54c0 2.44-1 3.37-3.36 3.37h-3.87v5.55h24.65v-5.55h-4.12c-2.35 0-3.35-.93-3.35-3.37zM611.65 47.14c0 3.36-1 4.79-3.62 4.79-1.787.15-3.414-1.033-3.82-2.78V24.33h11.48v-5.55h-11.11V3.12h-5.22c-.75 7.74-2.94 15.32-11.53 15.91v5.3h7.07v25.75c0 6.73 4.46 9.34 10.78 9.34 6.64 0 11.52-3.87 11.52-12.7v-7.07h-5.55v7.49zM.19 76.51v-7.34h5.12c3.12 0 4.45-1.23 4.45-4.46v-28.5c0-3.23-1.33-4.46-4.45-4.46H.19V24.4H22.9v40.31c0 3.23 1.34 4.46 4.46 4.46h5.45v7.34H.19zm14.7-75.15c4.418 0 8 3.582 8 8s-3.582 8-8 8-8-3.582-8-8 3.582-8 8-8zM35.7 76.51v-7.34h5.45c3.12 0 4.46-1.23 4.46-4.46V14.5c0-3.23-1.34-4.46-4.46-4.46H35.7V2.69h23v62c0 3.23 1.33 4.46 4.45 4.46h5.23v7.34l-32.68.02zM152.45 2.69h8.24v28.62h-8.57c-3-10.69-8.8-21.27-23.27-21.27-12.25 0-19.38 13-19.38 29.51 0 16.92 5.57 29.62 21.27 29.62 11.25 0 16.48-5.79 16.48-14.26v-4.23c0-3.78-3-5.34-5.9-5.34h-7.13V37.1h40.2v8.24h-5.68c-4.79 0-5.9 1.11-5.9 5.57v25.6h-8l-4.12-5.67c-6.23 5.23-15.14 7.9-23.16 7.9C105.91 78.74 92 63.38 92 39.55 92 17.06 105.7.47 127.52.47c8.146.05 16.007 3.011 22.16 8.35l2.77-6.13zM175.71 76.51v-7.34h5.12c3.12 0 4.45-1.23 4.45-4.46v-28.5c0-3.23-1.33-4.46-4.45-4.46h-5.12V24.4h22.71v40.31c0 3.23 1.34 4.46 4.45 4.46h5.46v7.34h-32.62zM190.4 1.36c4.418 0 8 3.582 8 8s-3.582 8-8 8-8-3.582-8-8 3.582-8 8-8zM236.91 22.73c16.71 0 28.62 10 28.62 27.73s-11.91 27.72-28.62 27.72-28.61-10-28.61-27.72 11.91-27.73 28.61-27.73zm0 48.11c9 0 13.7-7 13.7-20.38 0-13.38-4.68-20.38-13.7-20.38s-13.69 7-13.69 20.38c0 13.38 4.67 20.38 13.69 20.38zM289.64 32.87h.22c4.45-6.68 7.91-10.14 13.92-10.14 7.13 0 13.47 4.12 13.47 12.25 0 5-3 9.36-8.46 9.36-4.34 0-7.91-2.56-7.91-7.13 0-4.23 3.34-6.57 7.35-6.68-1.22-1.34-3-1.56-4.67-1.56-9.13 0-13.81 9.13-13.81 17.15v18.59c0 3.23 1.34 4.46 4.45 4.46h7v7.34H266v-7.34h6.13c3.11 0 4.45-1.23 4.45-4.46v-28.5c0-3.23-1.34-4.46-4.45-4.46H266V24.4h23.61l.03 8.47zM344.08 34.09h.22c4.57-6.9 10.69-11.36 19.37-11.36 9.8 0 15.82 5.91 15.82 17.93v24c0 3.23 1.33 4.46 6.68 4.46h4v7.34h-32.51v-7.29h2.67c4.68 0 6-1.23 6-4.46V41.55c0-8.35-4.46-10.13-9.8-10.13-5.34 0-12.47 5.68-12.47 12.8v20.49c0 3.23 1.33 4.46 4.45 4.46h4.34v7.34h-32.71v-7.34h6.35c3.11 0 4.45-1.23 4.45-4.46V37.77c0-4.79-1.34-6-7.13-6h-3.67V24.4h23.94v9.69zM452.61 57.14v3.34c0 12.47-5 17.7-14.36 17.7-5.57 0-10.36-2.33-11.25-8.23-4.12 6.23-11.25 8.23-18.26 8.23-8.69 0-15.48-4.11-15.48-14.14 0-21.6 33.41-11.13 33.41-26.83 0-7.13-6-8.46-11.92-8.46-3.12 0-8.35 1-10.35 3.67 4.12-.55 7.35 1.23 7.35 5.79 0 5-3.46 6.57-7.8 6.57-2.173.03-4.262-.837-5.775-2.396-1.514-1.56-2.319-3.673-2.225-5.844 0-11.36 13.59-13.81 22.38-13.81 15 0 21.49 6.8 21.49 16.15v27.28c0 2.45 1 3.67 2.68 3.67 1.68 0 3-1.55 3-8.46v-4.23h7.11zM426.67 49l-11.81 5.35c-3.23 1.44-6.68 3.23-6.68 8.46 0 4.68 2.12 7 6.68 7 7.57 0 11.81-6.45 11.81-13.58V49zM454.49 76.51v-7.34H460c3.12 0 4.45-1.23 4.45-4.46V14.5c0-3.23-1.33-4.46-4.45-4.46h-5.46V2.69h23.05v62c0 3.23 1.34 4.46 4.46 4.46h5.23v7.34l-32.79.02zM502.87 51.8c-.33 8.68 2.34 18 12.7 18 8 0 12-4.12 13.47-11.8h9.24c-1.44 12.69-9.13 20.15-23.94 20.15-17.26.03-26.34-9.65-26.34-27.69 0-16.26 10.47-27.73 25.84-27.73 18.26 0 25.94 16.37 24.72 29.07h-35.69zm20.72-7.35c.11-7-2.12-13.92-10-13.92-7.57 0-10.35 6.9-10.69 13.92h20.69z" transform="translate(-80 -489) translate(80 489)"/>
            </g>
        </g>
    </g>
</svg>
