<svg xmlns="http://www.w3.org/2000/svg" width="66" height="81" viewBox="0 0 66 81">
    <g fill="none" fill-rule="evenodd">
        <g fill-rule="nonzero">
            <g>
                <path fill="#1C1C1C" d="M47.85 1.76h6.51v22.62h-6.78c-2.37-8.45-6.95-16.81-18.39-16.81-9.68 0-15.31 10.29-15.31 23.32 0 13.37 4.4 23.4 16.81 23.4 8.89 0 13-4.57 13-11.26v-3.34c0-3-2.37-4.23-4.66-4.23h-5.61V29h31.76v6.51H60.7c-3.79 0-4.67.88-4.67 4.4V60.1H49.7l-3.26-4.49c-4.93 4.14-12 6.25-18.3 6.25C11.07 61.86.07 49.72.07 30.89.07 13.11 10.89 0 28.14 0c6.437.042 12.647 2.383 17.51 6.6l2.2-4.84z" transform="translate(-80 -1281) translate(80 1281)"/>
                <path fill="#00D1B8" d="M65.18 66.16L8.76 66.16 8.76 70.94 56.35 70.94 56.35 75.75 65.18 75.75z" transform="translate(-80 -1281) translate(80 1281)"/>
                <path fill="#EAE522" d="M8.76 70.94L0 70.94 0 80.5 56.35 80.5 56.35 75.72 8.76 75.72z" transform="translate(-80 -1281) translate(80 1281)"/>
                <path fill="#1C1C1C" d="M56.35 75.72L56.35 70.94 8.76 70.94 8.76 75.72" transform="translate(-80 -1281) translate(80 1281)"/>
            </g>
        </g>
    </g>
</svg>
