<svg xmlns="http://www.w3.org/2000/svg" width="67" height="81" viewBox="0 0 67 81">
    <g fill="none" fill-rule="evenodd">
        <g fill-rule="nonzero">
            <g>
                <path fill="#FFF" d="M48.8 1.8h6.5v22.6h-6.8c-2.4-8.4-7-16.8-18.4-16.8-9.7 0-15.3 10.3-15.3 23.3 0 13.4 4.4 23.4 16.8 23.4 8.9 0 13-4.6 13-11.3v-3.3c0-3-2.4-4.2-4.7-4.2h-5.6V29h31.8v6.5h-4.5c-3.8 0-4.7.9-4.7 4.4v20.2h-6.3l-3.3-4.5c-4.9 4.1-12 6.2-18.3 6.2C11.9 61.8.9 49.7.9 30.8 1.1 13.1 11.9 0 29.1 0c6.4 0 12.6 2.4 17.5 6.6l2.2-4.8z" transform="translate(-273 -1281) translate(273 1281)"/>
                <path fill="#00D1B8" d="M66.2 66.2L9.8 66.2 9.8 70.9 57.3 70.9 57.3 75.7 66.2 75.7z" transform="translate(-273 -1281) translate(273 1281)"/>
                <path fill="#EAE522" d="M9.8 70.9L1 70.9 1 80.5 57.3 80.5 57.3 75.7 9.8 75.7z" transform="translate(-273 -1281) translate(273 1281)"/>
                <path fill="#FFF" d="M57.3 75.7L57.3 70.9 9.8 70.9 9.8 75.7" transform="translate(-273 -1281) translate(273 1281)"/>
            </g>
        </g>
    </g>
</svg>
