<svg xmlns="http://www.w3.org/2000/svg" width="36" height="33" viewBox="0 0 36 33">
    <g fill="none" fill-rule="evenodd">
        <g>
            <g>
                <g>
                    <g>
                        <path fill="#00D1B8" d="M27 31l9-5v-4c-5-2.946-7-5.513-7-8 0-3.535 2.8-6.99 7-11l-3-3c-6.4 5.035-12 11.452-12 19 0 3.608 1.7 7.755 6 12zM8 31l9-5v-4c-5-2.946-7-5.513-7-8 0-3.535 2.8-6.99 7-11l-3-3C7.6 5.035 2 11.452 2 19c0 3.608 1.7 7.755 6 12z" transform="translate(-331 -3665) translate(0 1349) translate(70 2316) translate(261)"/>
                        <path fill="#EAE522" d="M25 33l9-5v-4c-5-2.946-7-5.513-7-8 0-3.535 2.8-6.99 7-11l-3-3c-6.4 5.035-12 11.452-12 19 0 3.608 1.7 7.755 6 12zM6 33l9-5v-4c-5-2.946-7-5.513-7-8 0-3.535 2.8-6.99 7-11l-3-3C5.6 7.035 0 13.452 0 21c0 3.608 1.7 7.755 6 12z" transform="translate(-331 -3665) translate(0 1349) translate(70 2316) translate(261)"/>
                        <path fill="#1C1C1C" fill-rule="nonzero" d="M31.4 1.3l2.7 3.2c-4 3.9-6.8 7.4-6.8 10.7 0 2.8 2 5.4 7 7.9l-.001 3.675L27 30.7c-3.886-4.177-5.601-8.26-5.696-12.157L21.3 18.2c0-5.063 2.694-9.741 6.513-13.834 1.141-1.07 2.348-2.094 3.587-3.066zm-19 0l2.7 3.2c-4 3.9-6.8 7.4-6.8 10.7 0 2.8 2 5.4 7 7.9l-.001 3.675L8 30.7c-3.886-4.177-5.601-8.26-5.696-12.157L2.3 18.2c0-5.063 2.694-9.741 6.513-13.834C9.954 3.296 11.161 2.272 12.4 1.3z" transform="translate(-331 -3665) translate(0 1349) translate(70 2316) translate(261)"/>
                    </g>
                </g>
            </g>
        </g>
    </g>
</svg>
